HIERARCHY
ROOT Hips
{
	OFFSET 0.00000 0.00000 0.00000
	CHANNELS 6 Xposition Yposition Zposition Yrotation Zrotation Xrotation 
	JOINT Lumbar
	{
		OFFSET 0 0 0
		CHANNELS 3 Zrotation Xrotation Yrotation
		JOINT Neck
		{
			OFFSET 0.00 0.2701 0.00
			CHANNELS 3 Zrotation Xrotation Yrotation
			End Site
			{
				OFFSET 0.00 0.1379 0.00
			}
		}
		JOINT RightShoulder
		{
			OFFSET 0.0119 0.2289 0.1181
			CHANNELS 3 Zrotation Xrotation Yrotation
			JOINT RightElbow
			{
				OFFSET 0.00 -0.1475 0.00
				CHANNELS 2 Zrotation Yrotation
				JOINT RightWrist
				{
					OFFSET 0.00 -0.1605 0.00
					CHANNELS 2 Zrotation Xrotation
					End Site
					{
						OFFSET 0.0040 -0.1068 0.0006
					}
				}
			}
		}
		JOINT LeftShoulder
		{
			OFFSET 0.0119 0.2289 -0.1181
			CHANNELS 3 Zrotation Xrotation Yrotation
			JOINT LeftElbow
			{
				OFFSET 0.00 -0.1475 0.00
				CHANNELS 2 Zrotation Yrotation
				JOINT LeftWrist
				{
					OFFSET 0.00 -0.1605 0.00
					CHANNELS 2 Zrotation Xrotation
					End Site
					{
						OFFSET 0.0040 -0.1068 -0.0006
					}
				}
			}
		}
	}
	JOINT RightHip
	{
		OFFSET 0.0316 -0.0424 0.0458
		CHANNELS 3 Zrotation Xrotation Yrotation
		JOINT RightKnee
		{
			OFFSET 0.00 -0.2438 0.00
			CHANNELS 1 Zrotation
			JOINT RightAnkle
			{
				OFFSET 0.00 -0.2449 0.00
				CHANNELS 3 Zrotation Xrotation Yrotation
				End Site
				{
					OFFSET 0.1237 -0.0542 0.0051
				}
			}
		}
	}
	JOINT LeftHip
	{
		OFFSET 0.0316 -0.0424 -0.0458
		CHANNELS 3 Zrotation Xrotation Yrotation
		JOINT LeftKnee
		{
			OFFSET 0.00 -0.2438 0.00
			CHANNELS 1 Zrotation
			JOINT LeftAnkle
			{
				OFFSET 0.00 -0.2449 0.00
				CHANNELS 3 Zrotation Xrotation Yrotation
				End Site
				{
					OFFSET 0.1237 -0.0542 -0.0051
				}
			}
		}
	}
}
MOTION
Frames: 22
Frame Time: 0.02
0.03589 0.56516 -0.06049 178.02026 0 -8.19766 15.00554 10.29396 -9.83481 -38.04066 8.7112 4.09236 -19.02658 -83.49247 -48.48551 135.55061 129.37831 40.87647 2.56405 -18.29951 45.17194 31.27181 126.31067 -82.12178 -9.08379 3.96089 -2.34354 13.92282 -38.48965 -15.0495 -9.3504 0.00035 17.1875 7.22336 -4.85343 21.62147 -17.16365 -0.93875 2.97768 3.35538
0.03428 0.56524 -0.06223 177.54929 0 -8.00248 14.94489 9.97955 -9.29635 -37.76762 8.3971 3.95835 -18.79367 -83.39929 -47.74547 135.61306 129.13026 40.13859 2.62476 -18.36538 45.01379 31.23959 126.11303 -82.16587 -9.0287 3.96637 -2.53707 13.92289 -37.99549 -14.89278 -9.50335 -6e-05 17.18903 7.11393 -4.95229 21.37419 -17.1106 -1.07061 3.15543 3.89494
0.03276 0.56548 -0.06394 176.92649 0 -7.73236 14.8573 9.65539 -8.63667 -37.42369 8.04606 3.84547 -19.26648 -83.34982 -47.66973 135.69415 128.84288 39.19867 2.70425 -18.48607 44.75671 31.19887 125.84889 -82.20072 -8.93871 3.9537 -2.74316 13.92286 -37.01796 -14.60967 -9.72651 -0.00017 17.18872 7.18522 -5.0402 21.13645 -17.36111 -1.29521 3.35785 4.47344
0.0312 0.56564 -0.06565 176.38101 0 -7.49719 14.78233 9.33912 -8.0372 -37.11475 7.70601 3.718 -19.44866 -83.28681 -47.32618 135.76463 128.56591 38.31879 2.78341 -18.5633 44.55148 31.14859 125.59643 -82.22562 -8.86811 3.94472 -2.94357 13.92286 -36.25775 -14.38492 -9.90802 -6e-05 17.18846 7.1653 -5.13605 20.90384 -17.45778 -1.47361 3.54284 5.02308
0.02962 0.56582 -0.06742 175.79678 0 -7.25588 14.70739 9.00704 -7.41433 -36.79744 7.38861 3.61251 -19.50372 -83.19825 -46.83838 135.84387 128.31867 37.56619 2.82993 -18.71769 44.31642 31.15502 125.42524 -82.30669 -8.78189 3.95459 -3.1459 13.92286 -35.48775 -14.15229 -10.1282 -0.0002 17.18865 7.18217 -5.22333 20.63293 -17.61713 -1.67161 3.75474 5.62693
0.02811 0.566 -0.06906 175.26001 0 -7.01062 14.62507 8.70618 -6.81222 -36.47841 7.01628 3.46578 -19.99252 -83.17089 -46.8116 135.9088 128.00213 36.5072 2.94674 -18.72361 44.11967 31.03835 125.06405 -82.27421 -8.72064 3.92281 -3.34615 13.92285 -34.63255 -13.908 -10.2852 -0.00021 17.18851 7.1665 -5.32417 20.44269 -17.72077 -1.84946 3.91636 6.12404
0.02674 0.56613 -0.07039 174.87415 0 -6.77096 14.53266 8.49247 -6.29545 -36.18463 6.4975 3.20171 -21.48817 -83.32598 -47.86108 135.93636 127.48626 34.60013 3.27075 -18.31989 44.06028 30.61846 124.23895 -81.88016 -8.73302 3.75866 -3.541 13.92286 -33.64 -13.65711 -10.25372 -0.00017 17.18856 7.00986 -5.46736 20.48196 -17.58338 -1.9537 3.93083 6.32082
0.02545 0.56624 -0.07159 174.54487 0 -6.53055 14.43285 8.31102 -5.80435 -35.88896 5.92573 2.89517 -23.39751 -83.53688 -49.3561 135.9473 126.90419 32.40078 3.66177 -17.76179 44.04145 30.06786 123.2154 -81.38301 -8.77367 3.55714 -3.73242 13.92286 -32.58465 -13.40031 -10.15608 -0.00013 17.18862 6.81572 -5.62363 20.60029 -17.38239 -2.03332 3.89407 6.40703
0.02413 0.56635 -0.07285 174.20128 0 -6.29203 14.33389 8.11585 -5.30271 -35.58544 5.38082 2.60655 -25.13129 -83.70648 -50.67108 135.9622 126.36549 30.37037 4.01013 -17.26682 43.99975 29.55626 122.25557 -80.96372 -8.80242 3.3867 -3.92298 13.92287 -31.57402 -13.15022 -10.08702 -9e-05 17.18864 6.64338 -5.77196 20.67626 -17.21941 -2.12077 3.88221 6.54051
0.02277 0.5665 -0.07412 173.80402 0 -6.0444 14.2448 7.91609 -4.79175 -35.31592 4.82247 2.32368 -26.84402 -83.94458 -51.92068 135.99483 125.77407 28.18384 4.40961 -16.80698 43.97431 29.13501 121.41102 -80.4064 -8.82105 3.15585 -4.12431 13.92287 -30.4782 -12.87874 -10.0265 -4e-05 17.1887 6.45708 -5.92844 20.77954 -17.02827 -2.22549 3.86467 6.68858
0.02153 0.56657 -0.07533 173.53422 0 -5.81644 14.13353 7.73401 -4.30828 -34.97646 4.28052 2.0195 -28.68108 -84.05301 -53.39595 135.98395 125.27132 26.25142 4.71965 -16.23212 43.92466 28.48894 120.27271 -80.12077 -8.87405 3.04256 -4.3021 13.92287 -29.55088 -12.65196 -9.93175 -0 17.18873 6.28881 -6.07112 20.84484 -16.87703 -2.2874 3.84614 6.77881
0.0206 0.56643 -0.07636 173.60116 0 -5.64473 13.96456 7.59042 -3.89214 -34.44107 3.79306 1.65795 -30.82936 -83.78792 -55.44672 135.87653 125.07065 25.1279 4.75316 -15.4155 43.80851 27.30358 118.43317 -80.53398 -8.96123 3.25913 -4.41657 13.92287 -29.11106 -12.55201 -9.75683 0 17.18873 6.17643 -6.17275 20.78381 -16.84706 -2.23459 3.84012 6.74157
0.0198 0.56622 -0.07733 173.79529 0 -5.493 13.77333 7.46416 -3.50404 -33.83638 3.32505 1.27808 -33.07132 -83.39131 -57.69356 135.72164 124.94717 24.26304 4.69586 -14.48123 43.66435 25.88783 116.29254 -81.23605 -9.09114 3.59568 -4.50724 13.92287 -28.84443 -12.49756 -9.54974 -0 17.18873 6.08295 -6.26 20.6823 -16.85833 -2.13955 3.83429 6.64878
0.01896 0.56604 -0.07834 173.93306 0 -5.33128 13.59128 7.33139 -3.10491 -33.2658 2.85046 0.91223 -35.22235 -83.05487 -59.80807 135.5762 124.77037 23.25933 4.68975 -13.57541 43.52786 24.5444 114.25131 -81.85927 -9.23838 3.88053 -4.60815 13.92287 -28.4962 -12.42162 -9.35821 0 17.18873 5.98221 -6.35369 20.60048 -16.85267 -2.06505 3.82638 6.5778
0.01808 0.56585 -0.07933 174.06726 0 -5.17301 13.4129 7.19332 -2.69842 -32.68377 2.36348 0.52045 -37.59527 -82.71547 -62.1245 135.48347 124.69644 22.34146 4.64758 -12.76924 43.41753 23.3308 112.3659 -82.26768 -9.23602 4.15394 -4.71133 13.92287 -28.15668 -12.34871 -9.16041 0 17.18873 5.87557 -6.44829 20.5154 -16.83908 -1.98408 3.82486 6.51746
0.01729 0.56567 -0.08032 174.23759 0 -5.01271 13.22167 7.07084 -2.31476 -32.10952 1.90885 0.17939 -39.51924 -82.35433 -64.0567 135.26728 124.3921 21.30225 4.6537 -11.73036 43.24119 21.79669 110.08104 -83.18075 -9.54926 4.4779 -4.80426 13.92287 -27.84228 -12.28055 -8.96893 0 17.18873 5.78506 -6.53735 20.42716 -16.85038 -1.90684 3.81104 6.42323
0.01666 0.56553 -0.08131 174.48271 0 -4.83865 13.00055 6.97989 -1.97758 -31.57059 1.52905 -0.02121 -40.20205 -81.93115 -64.90818 134.74374 123.75156 19.93637 4.85084 -10.07162 42.92586 19.40955 106.81588 -85.52714 -10.77289 4.93181 -4.87392 13.92287 -27.54503 -12.21306 -8.80203 0 17.18873 5.74377 -6.61497 20.33399 -16.93909 -1.85047 3.76075 6.24947
0.01611 0.56539 -0.08228 174.75791 0 -4.66251 12.76717 6.90535 -1.66417 -31.0424 1.18348 -0.16905 -40.41996 -81.49736 -65.355 134.09338 122.8287 18.42995 5.09155 -8.18491 42.53758 16.71333 103.14916 -88.35187 -12.30312 5.42904 -4.93429 13.92287 -27.26902 -12.14901 -8.64267 1e-05 17.18873 5.71652 -6.68736 20.23996 -17.04818 -1.79939 3.69871 6.04421
0.01553 0.56525 -0.08326 175.01561 0 -4.48943 12.53952 6.82776 -1.34603 -30.51141 0.82857 -0.33835 -40.83916 -81.08982 -65.97083 133.48701 121.81173 16.93928 5.29022 -6.40697 42.1592 14.17485 99.63735 -90.88502 -13.66069 5.89362 -4.99936 13.92287 -26.99049 -12.08437 -8.48117 1e-05 17.18873 5.67683 -6.76189 20.14969 -17.13593 -1.74583 3.64397 5.85333
0.01495 0.56511 -0.08424 175.29584 0 -4.30799 12.31091 6.7317 -1.00296 -29.96946 0.447 -0.51946 -41.31918 -80.58478 -66.67148 132.93738 121.6894 15.65071 5.58457 -4.60194 41.87998 11.55402 96.23862 -93.73926 -15.16118 6.4168 -5.0614 13.92287 -26.68903 -12.01744 -8.31469 1e-05 17.18873 5.66319 -6.83705 20.04311 -17.27615 -1.69106 3.58119 5.65925
0.01437 0.56497 -0.08523 175.53227 0 -4.14339 12.08104 6.6784 -0.71744 -29.4535 0.1302 -0.66256 -41.54188 -80.28512 -67.07816 132.23906 119.69459 13.91687 5.68499 -2.8021 41.37485 9.03598 92.50385 -96.03726 -16.43533 6.82699 -5.12807 13.92287 -26.43663 -11.95517 -8.15876 2e-05 17.18873 5.59859 -6.90967 19.97174 -17.31128 -1.64069 3.53204 5.46626
0.0137 0.56483 -0.08625 175.65968 0 -4.02407 11.85625 6.73364 -0.58264 -29.00969 -0.02669 -0.71856 -41.3339 -80.53157 -66.93385 131.16942 112.09071 10.87802 5.29458 -1.06464 40.28358 6.86662 88.02323 -96.65149 -17.01317 6.91012 -5.2081 13.92287 -26.32629 -11.90764 -8.04857 1e-05 17.18872 5.38817 -6.97808 19.9899 -17.05236 -1.60065 3.52654 5.27453
